<?xml version="1.0" encoding="UTF-8"?>
<svg width="421px" height="278px" viewBox="0 0 421 278" version="1.1" xmlns="http://www.w3.org/2000/svg" xmlns:xlink="http://www.w3.org/1999/xlink">
    <title>ilustração operação</title>
    <g id="discovery-e-gestao" stroke="none" stroke-width="1" fill="none" fill-rule="evenodd">
        <g id="LP-/-Gestao" transform="translate(-167.000000, -1548.000000)">
            <g id="ilustração-operação" transform="translate(167.000000, 1548.000000)">
                <g id="Group-10-Copy-2" transform="translate(284.000000, 62.000000)" fill-rule="nonzero">
                    <rect id="Rectangle" fill="#E2E2E2" x="0" y="48" width="137" height="3"></rect>
                    <rect id="Rectangle" fill="#E2E2E2" x="5" y="115" width="132" height="3"></rect>
                    <rect id="Rectangle" fill="#F4F3F3" x="68" y="0" width="34" height="48"></rect>
                    <rect id="Rectangle" fill="#CDCDCD" x="102" y="19" width="35" height="29"></rect>
                    <rect id="Rectangle" fill="#EAEAEA" x="56" y="68" width="29" height="47"></rect>
                    <rect id="Rectangle" fill="#E2E2E2" x="90" y="96" width="40" height="19"></rect>
                    <rect id="Rectangle" fill="#CDCDCD" x="85" y="0" width="1" height="48"></rect>
                    <rect id="Rectangle" fill="#F4F3F3" x="119" y="19" width="1" height="29"></rect>
                    <rect id="Rectangle" fill="#CACACA" x="70" y="68" width="1" height="47"></rect>
                    <rect id="Rectangle" fill="#CACACA" x="110" y="96" width="1" height="19"></rect>
                </g>
                <g id="Ilustrações-/-canais-de-venda-/-12" transform="translate(360.000000, 134.000000)"></g>
                <g id="Group-26" transform="translate(132.000000, 0.000000)" fill-rule="nonzero">
                    <rect id="Rectangle" fill="#F4F3F3" x="0" y="0" width="183" height="255" rx="18.1"></rect>
                    <rect id="Rectangle" fill="#D7DCF0" x="0" y="0" width="183" height="15.4813763"></rect>
                    <ellipse id="Oval" fill="#F9F9F9" cx="10.2876404" cy="7.72056503" rx="2.64269663" ry="2.62941919"></ellipse>
                    <ellipse id="Oval" fill="#F9F9F9" cx="20.7235955" cy="7.72056503" rx="2.64269663" ry="2.62941919"></ellipse>
                    <ellipse id="Oval" fill="#F9F9F9" cx="31.1595506" cy="7.72056503" rx="2.64269663" ry="2.62941919"></ellipse>
                    <polygon id="Path" fill="#000000" points="159.458427 103.942551 158.642697 103.942551 158.642697 101.702178 156.391011 101.702178 156.391011 100.883838 159.458427 100.883838"></polygon>
                    <polygon id="Path" fill="#000000" points="159.458427 156.691919 156.391011 156.691919 156.391011 155.87358 158.642697 155.87358 158.642697 153.639915 159.458427 153.639915"></polygon>
                    <path d="M159.670787,148.112768 L158.642697,148.112768 L158.642697,142.578914 L159.670787,142.578914 L159.670787,148.112768 Z M159.670787,137.071891 L158.642697,137.071891 L158.642697,131.551452 L159.670787,131.551452 L159.670787,137.071891 Z M159.670787,126.024306 L158.642697,126.024306 L158.642697,120.503867 L159.670787,120.503867 L159.670787,126.024306 Z M159.670787,114.983428 L158.642697,114.983428 L158.642697,109.462989 L159.670787,109.462989 L159.670787,114.983428 Z" id="Shape" fill="#000000"></path>
                    <g id="Group" transform="translate(16.375281, 35.745344)">
                        <rect id="Rectangle" fill="#E58070" x="0" y="46.2697285" width="151.617978" height="5.43323864"></rect>
                        <rect id="Rectangle" fill="#E58070" x="0" y="120.946575" width="151.617978" height="5.43323864"></rect>
                        <rect id="Rectangle" fill="#E58070" x="0" y="196.918008" width="151.617978" height="5.43323864"></rect>
                        <rect id="Rectangle" fill="#CDCDCD" x="4.09213483" y="165.888179" width="51.788764" height="31.0231218"></rect>
                        <polygon id="Path" fill="#000000" points="101.582022 146.543166 100.766292 146.543166 100.766292 144.302794 98.5146067 144.302794 98.5146067 143.484454 101.582022 143.484454"></polygon>
                        <path d="M93.7146067,144.50855 L88.9213483,144.50855 L88.9213483,143.484454 L93.7146067,143.484454 L93.7146067,144.50855 Z M84.1280899,144.50855 L79.3280899,144.50855 L79.3280899,143.484454 L84.1280899,143.484454 L84.1280899,144.50855 Z M74.5348315,144.50855 L69.7348315,144.50855 L69.7348315,143.484454 L74.5348315,143.484454 L74.5348315,144.50855 Z" id="Shape" fill="#000000"></path>
                        <polygon id="Path" fill="#000000" points="62.6898876 146.543166 61.8741573 146.543166 61.8741573 143.484454 64.941573 143.484454 64.941573 144.302794 62.6898876 144.302794"></polygon>
                        <path d="M62.9022472,188.600458 L61.8741573,188.600458 L61.8741573,183.348327 L62.9022472,183.348327 L62.9022472,188.600458 Z M62.9022472,178.089489 L61.8741573,178.089489 L61.8741573,172.83065 L62.9022472,172.83065 L62.9022472,178.089489 Z M62.9022472,167.571812 L61.8741573,167.571812 L61.8741573,162.312973 L62.9022472,162.312973 L62.9022472,167.571812 Z M62.9022472,157.054135 L61.8741573,157.054135 L61.8741573,151.775174 L62.9022472,151.775174 L62.9022472,157.054135 Z" id="Shape" fill="#000000"></path>
                        <polygon id="Path" fill="#000000" points="64.941573 196.918008 61.8741573 196.918008 61.8741573 193.859296 62.6898876 193.859296 62.6898876 196.099669 64.941573 196.099669"></polygon>
                        <path d="M93.7146067,197.123765 L88.9213483,197.123765 L88.9213483,196.099669 L93.7146067,196.099669 L93.7146067,197.123765 Z M84.1280899,197.123765 L79.3280899,197.123765 L79.3280899,196.099669 L84.1280899,196.099669 L84.1280899,197.123765 Z M74.5348315,197.123765 L69.7348315,197.123765 L69.7348315,196.099669 L74.5348315,196.099669 L74.5348315,197.123765 Z" id="Shape" fill="#000000"></path>
                        <polygon id="Path" fill="#000000" points="101.582022 196.918008 98.5146067 196.918008 98.5146067 196.099669 100.766292 196.099669 100.766292 193.859296 101.582022 193.859296"></polygon>
                        <path d="M101.794382,188.600458 L100.766292,188.600458 L100.766292,183.348327 L101.794382,183.348327 L101.794382,188.600458 Z M101.794382,178.089489 L100.766292,178.089489 L100.766292,172.83065 L101.794382,172.83065 L101.794382,178.089489 Z M101.794382,167.571812 L100.766292,167.571812 L100.766292,162.312973 L101.794382,162.312973 L101.794382,167.571812 Z M101.794382,157.054135 L100.766292,157.054135 L100.766292,151.775174 L101.794382,151.775174 L101.794382,157.054135 Z" id="Shape" fill="#000000"></path>
                        <polygon id="Path" fill="#000000" points="87.9707865 169.792061 82.1393258 169.792061 82.1393258 164.19113 81.3168539 164.19113 81.3168539 169.792061 75.4853933 169.792061 75.4853933 170.610401 81.3168539 170.610401 81.3168539 176.211332 82.1393258 176.211332 82.1393258 170.610401 87.9707865 170.610401"></polygon>
                        <path d="M134.838202,66.1625907 L129.660674,66.1625907 L129.660674,65.1384943 L134.838202,65.1384943 L134.838202,66.1625907 Z M124.489888,66.1625907 L119.31236,66.1625907 L119.31236,65.1384943 L124.489888,65.1384943 L124.489888,66.1625907 Z M114.134831,66.1625907 L108.957303,66.1625907 L108.957303,65.1384943 L114.134831,65.1384943 L114.134831,66.1625907 Z" id="Shape" fill="#000000"></path>
                        <polygon id="Path" fill="#000000" points="101.534831 68.1972064 100.71236 68.1972064 100.71236 65.1384943 103.786517 65.1384943 103.786517 65.956834 101.534831 65.956834"></polygon>
                        <path d="M101.740449,112.367424 L100.71236,112.367424 L100.71236,106.83357 L101.740449,106.83357 L101.740449,112.367424 Z M101.740449,101.326547 L100.71236,101.326547 L100.71236,95.806108 L101.740449,95.806108 L101.740449,101.326547 Z M101.740449,90.2789615 L100.71236,90.2789615 L100.71236,84.7585227 L101.740449,84.7585227 L101.740449,90.2789615 Z M101.740449,79.238084 L100.71236,79.238084 L100.71236,73.7176452 L101.740449,73.7176452 L101.740449,79.238084 Z" id="Shape" fill="#000000"></path>
                        <polygon id="Path" fill="#000000" points="103.786517 120.946575 100.71236 120.946575 100.71236 117.894571 101.534831 117.894571 101.534831 120.128235 103.786517 120.128235"></polygon>
                        <path d="M134.838202,121.132209 L129.660674,121.132209 L129.660674,120.108112 L134.838202,120.108112 L134.838202,121.132209 Z M124.489888,121.132209 L119.31236,121.132209 L119.31236,120.108112 L124.489888,120.108112 L124.489888,121.132209 Z M114.134831,121.132209 L108.957303,121.132209 L108.957303,120.108112 L114.134831,120.108112 L114.134831,121.132209 Z" id="Shape" fill="#000000"></path>
                        <polygon id="Path" fill="#000000" points="128.14382 93.6529356 122.305618 93.6529356 122.305618 88.0520044 121.489888 88.0520044 121.489888 93.6529356 115.658427 93.6529356 115.658427 94.4712753 121.489888 94.4712753 121.489888 100.072206 122.305618 100.072206 122.305618 94.4712753 128.14382 94.4712753"></polygon>
                        <polygon id="Path" fill="#000000" points="37.2202247 20.4115372 36.4044944 20.4115372 36.4044944 18.1644571 34.1460674 18.1644571 34.1460674 17.3528251 37.2202247 17.3528251"></polygon>
                        <path d="M29.0292135,18.3769215 L23.9123596,18.3769215 L23.9123596,17.3528251 L29.0292135,17.3528251 L29.0292135,18.3769215 Z M18.7955056,18.3769215 L13.6786517,18.3769215 L13.6786517,17.3528251 L18.7955056,17.3528251 L18.7955056,18.3769215 Z" id="Shape" fill="#000000"></path>
                        <polygon id="Path" fill="#000000" points="6.31011236 20.4115372 5.48764045 20.4115372 5.48764045 17.3528251 8.56179775 17.3528251 8.56179775 18.1644571 6.31011236 18.1644571"></polygon>
                        <path d="M6.51573034,38.6028251 L5.48764045,38.6028251 L5.48764045,34.0550032 L6.50730337,34.0550032 L6.51573034,38.6028251 Z M6.51573034,29.5071812 L5.48764045,29.5071812 L5.48764045,24.9593592 L6.50730337,24.9593592 L6.51573034,29.5071812 Z" id="Shape" fill="#000000"></path>
                        <polygon id="Path" fill="#000000" points="8.56179775 46.2093592 5.48764045 46.2093592 5.48764045 43.1506471 6.31011236 43.1506471 6.31011236 45.3910196 8.56179775 45.3910196"></polygon>
                        <path d="M29.0292135,46.415116 L23.9123596,46.415116 L23.9123596,45.3910196 L29.0292135,45.3910196 L29.0292135,46.415116 Z M18.7955056,46.415116 L13.6786517,46.415116 L13.6786517,45.3910196 L18.7955056,45.3910196 L18.7955056,46.415116 Z" id="Shape" fill="#000000"></path>
                        <polygon id="Path" fill="#000000" points="37.2202247 46.2093592 34.1460674 46.2093592 34.1460674 45.3910196 36.4044944 45.3910196 36.4044944 43.1506471 37.2202247 43.1506471"></polygon>
                        <path d="M37.4258427,38.6028251 L36.3977528,38.6028251 L36.3977528,34.0550032 L37.4258427,34.0550032 L37.4258427,38.6028251 Z M37.4258427,29.5071812 L36.3977528,29.5071812 L36.3977528,24.9593592 L37.4258427,24.9593592 L37.4258427,29.5071812 Z" id="Shape" fill="#000000"></path>
                        <polygon id="Path" fill="#000000" points="27.6 31.3719223 21.7617978 31.3719223 21.7617978 25.7709912 20.9460674 25.7709912 20.9460674 31.3719223 15.1146067 31.3719223 15.1146067 32.190262 20.9460674 32.190262 20.9460674 37.7911932 21.7617978 37.7911932 21.7617978 32.190262 27.6 32.190262"></polygon>
                        <rect id="Rectangle" fill="#F1A4C4" x="8.39325843" y="72.2017045" width="36.0269663" height="48.7448706"></rect>
                        <rect id="Rectangle" fill="#000000" x="25.9955056" y="72.2017045" width="1" height="48.7448706"></rect>
                        <rect id="Rectangle" fill="#0050DC" x="58.5438202" y="91.7546559" width="30.7078652" height="29.1919192"></rect>
                        <rect id="Rectangle" fill="#000000" x="72.5662921" y="91.7546559" width="1" height="29.1919192"></rect>
                        <rect id="Rectangle" fill="#D7DCF0" x="45.5460674" y="0" width="36.8494382" height="46.2697285"></rect>
                        <rect id="Rectangle" fill="#000000" x="63.5595506" y="0" width="1" height="46.2697285"></rect>
                        <rect id="Rectangle" fill="#FFFFFF" x="90.5797753" y="15.5819918" width="55.5775281" height="30.6877367"></rect>
                        <rect id="Rectangle" fill="#000000" x="111.970787" y="15.5819918" width="1" height="30.6877367"></rect>
                        <rect id="Rectangle" fill="#D7DCF0" x="108.903371" y="155.907118" width="36.2292135" height="41.0041824"></rect>
                        <rect id="Rectangle" fill="#000000" x="127.085393" y="155.893703" width="1" height="41.0243056"></rect>
                    </g>
                </g>
                <g id="Group-18" transform="translate(0.000000, 155.000000)" fill-rule="nonzero">
                    <path d="M50.5195206,114.84272 C50.1103198,115.043474 50.5195206,122.966541 50.5195206,122.966541 L185.508807,122.966541 L211,62.6200686 L132.715203,62.6200686 L113.060151,114.434522 L50.5195206,114.84272 Z" id="Path" fill="#000000"></path>
                    <g id="Group-3">
                        <path d="M48.6613467,36.7362633 C49.4260825,43.9299269 46.1994341,51.6120904 38.0825014,56.6108501 C29.9655688,61.6096098 66.854009,57.3804048 66.854009,57.3804048 C66.854009,57.3804048 61.3666942,50.2670426 69.3830038,46.9746868 C77.3993133,43.682331 48.6613467,36.7362633 48.6613467,36.7362633 Z" id="Path" fill="#F1A4C4"></path>
                        <path d="M2.03929548,122.966541 L1.01964774,123 L0,122.966541 C0,122.966541 2.86440516,116.943939 6.8490812,108.692974 C9.94444041,102.283396 13.9165543,93.9241064 17.8337749,86.0635098 L18.5242897,84.6820208 C22.4318286,76.8885661 26.2296714,69.7378282 28.9861703,65.678212 C41.9128887,46.5664882 63.7078591,49.0759057 66.8473008,57.3804048 C73.9110447,76.0571629 79.6666879,84.7698605 70.0873657,104.677906 C68.3630877,108.261354 66.9493971,111.147313 65.790349,113.470775 L65.4133541,114.224614 C65.3239566,114.402908 65.2361905,114.577608 65.1500262,114.748783 L50.5195206,114.84272 C50.1103198,115.043474 50.5195206,122.966541 50.5195206,122.966541 L2.03929548,122.966541 Z" id="Combined-Shape" fill="#0050DC"></path>
                        <path d="M68.1956508,8.07536933 C78.1908819,9.16612948 85.7912825,17.3234094 85.9254467,27.1067918 L85.9254467,27.1067918 L87.2670884,42.8525503 L81.0485789,40.336441 C74.971574,47.4537976 64.7075647,49.3114513 56.5114287,44.7773496 C48.3152926,40.2432479 44.4591354,30.5743195 47.2928956,21.6628002 C50.1266558,12.7512809 58.8647678,7.06759247 68.1822344,8.07536933 L68.1956508,8.07536933 Z" id="Path" fill="#F1A4C4"></path>
                        <ellipse id="Oval" fill="#000000" cx="76.6144529" cy="27.3343123" rx="2.02587906" ry="2.02091758"></ellipse>
                        <path d="M65.1367076,73.9960947 C60.3604629,95.2893388 81.8736886,96.9489002 97.9264323,93.4959417 C111.403212,90.5970752 117.854138,95.5793994 119.577452,97.2530605 L113.212775,114.034257 C110.996681,113.241736 108.241484,108.710195 107.272477,106.881396 L107.205226,106.755095 L107.247343,106.869014 C107.890085,108.629361 109.005541,112.935074 106.164863,113.868761 L105.969575,113.925946 C102.011731,114.949789 100.67009,108.632748 100.67009,108.632748 C89.430511,112.368291 80.0196875,114.267744 72.2087605,114.703197 L66.2028032,114.741902 C40.7005827,113.528435 35.8445666,94.0147083 40.3767088,74.5046699 L40.3767088,74.5046699 Z" id="Combined-Shape" fill="#F1A4C4"></path>
                        <path d="M36.8951485,35.0566265 C39.578432,40.1691465 47.0782094,42.5112695 52.6393146,41.5275778 C59.4078972,40.336441 60.6354995,36.7362633 61.7222293,33.8387225 C64.3585554,26.7788946 55.9129205,26.6584425 58.9718637,21.6797582 C61.6953965,17.2364162 68.0145292,19.7190666 69.3427545,20.3079433 C69.5271623,20.3863844 69.7179133,20.4490661 69.9129522,20.4953131 L85.8986138,23.9348881 C86.9214945,24.1541139 87.9843818,23.8180844 88.6939563,23.0511467 C89.4035309,22.284209 89.6542522,21.2004357 89.3533414,20.2008748 C87.3744198,13.6027797 80.4985058,0.680952367 64.9757106,0.0385414821 C42.9794939,-0.884924166 37.9282126,15.0415124 36.076747,20.4283953 C35.4663,22.2217924 34.0911172,29.6630518 36.8951485,35.0566265 Z" id="Path" fill="#E58070"></path>
                    </g>
                </g>
                <g id="tenis-copy" transform="translate(394.082623, 148.289583) rotate(-38.000000) translate(-394.082623, -148.289583) translate(374.907998, 130.289583)" fill-rule="nonzero">
                    <path d="M4.00159607,23.1098076 C4.00159607,23.1098076 3.97695405,19.7923101 8.06868884,18.2346525 C12.1604236,16.6769948 22.3737481,11.0714235 24.9345059,9.01827699 L34.7092056,8.61960776 C34.7092056,8.61960776 37.7519883,8.64808413 36.9002283,12.7970917 C36.0484682,16.9460993 36.7456996,20.3336844 37.2059346,22.4897723 C37.5127579,23.9271643 26.4446451,24.1338427 4.00159607,23.1098076 Z" id="Path" fill="#F1A4C4" transform="translate(20.606869, 16.184232) rotate(38.000000) translate(-20.606869, -16.184232) "></path>
                    <path d="M-1.70326259,21.1401103 C-1.70326259,21.1401103 -2.60778524,25.9657256 2.36872861,26.1400339 C7.34524246,26.3143421 28.2546339,26.34957 28.2546339,26.34957 C28.2546339,26.34957 30.5709521,26.2652136 31.3231622,23.8067258 C31.5305761,23.1288242 31.6190674,21.7042367 31.507283,20.6173094 C9.36691929,20.9658433 -1.70326259,21.1401103 -1.70326259,21.1401103 Z" id="Path" fill="#E7E7E7" transform="translate(14.894231, 23.483440) rotate(38.000000) translate(-14.894231, -23.483440) "></path>
                    <circle id="Oval" fill="#FFFFFF" transform="translate(28.957718, 23.176906) rotate(38.000000) translate(-28.957718, -23.176906) " cx="28.9577181" cy="23.1769059" r="3.13655153"></circle>
                    <path d="M17.5250182,17.3591026 C17.529453,17.357936 17.5341059,17.357936 17.5385407,17.3591026 C18.3904585,18.0479422 19.8887519,19.500016 20.3431081,21.5940883 C20.3749715,21.7424128 20.2830517,21.8890463 20.137566,21.9219759 C20.085095,21.9333341 20.0304939,21.9285386 19.980705,21.9081992 L19.9834095,21.9081992 C19.9000066,21.8748549 19.8382255,21.8015935 19.8184349,21.7125687 C19.3884193,19.7838179 18.0010103,18.4364477 17.2058871,17.8027153 C17.0961662,17.709556 17.0764637,17.5455327 17.1608961,17.4281662 C17.2453285,17.3107998 17.4047856,17.2805553 17.5250182,17.3591026 Z M19.221383,16.4167912 L19.2856483,16.447079 C20.2700866,17.0835668 22.0253076,18.5218638 22.7230689,20.8776952 C22.7633754,21.0220925 22.6828037,21.1727892 22.5418673,21.2166042 C22.4845825,21.2344754 22.4233595,21.2344754 22.3660747,21.2166042 C22.2886348,21.1851513 22.2297606,21.1190702 22.2065092,21.0375059 C21.557429,18.8497514 19.915797,17.5106473 18.9962667,16.9044685 C18.8951383,16.836961 18.8525931,16.711728 18.884339,16.5984615 L18.9124271,16.5324951 C18.9507954,16.4707381 19.0116757,16.4270422 19.0816709,16.411023 C19.1283344,16.4003435 19.1764998,16.4025481 19.221383,16.4167912 Z M21.0949593,15.4744375 C21.9847401,15.9952003 24.1294093,17.4886045 24.9407596,20.161302 C24.9827884,20.3065712 24.9018589,20.4591677 24.759558,20.5029664 C24.6954198,20.526552 24.6249039,20.5245837 24.5621295,20.4974557 C24.4842681,20.4672739 24.4244044,20.4022185 24.3998594,20.3211128 C23.6615307,17.8412903 21.6466775,16.4415683 20.8245092,15.9593806 C20.7394814,15.9101609 20.6866862,15.8184651 20.6860046,15.7188343 C20.685336,15.6192035 20.7368835,15.5267739 20.8212362,15.4763628 C20.9055888,15.4259517 21.0099315,15.4252178 21.0949593,15.4744375 Z M22.9421334,14.4494443 C24.1294093,15.1768588 26.23892,16.808031 27.1043603,19.4283767 C27.1274975,19.4977942 27.1225276,19.5737436 27.0905504,19.6394177 C27.0692323,19.6832005 27.0370828,19.7200096 26.9977966,19.7465678 L26.9339767,19.7783072 C26.8759971,19.8013274 26.8119993,19.8032737 26.7527752,19.7838179 C26.6771471,19.7541115 26.618584,19.6914134 26.5932096,19.6129857 C25.7818593,17.1331632 23.7859377,15.6177162 22.6716833,14.9288766 C22.5417354,14.8527895 22.4969341,14.6837841 22.5716168,14.5513925 C22.6462996,14.4190009 22.8121855,14.3733571 22.9421334,14.4494443 Z M24.7947165,13.394142 C26.0550139,14.1959513 28.3105677,15.9483592 29.300415,18.7037175 C29.3511347,18.8467582 29.2785049,19.0046154 29.1381449,19.0564033 C29.0772905,19.0830175 29.0089665,19.0859587 28.9461254,19.0646694 C28.8732557,19.0360911 28.8160655,18.9768209 28.7892643,18.9021033 C27.864325,16.3038004 25.7088378,14.6340533 24.5053349,13.870819 C24.4217565,13.8181539 24.3721047,13.7240623 24.3750829,13.6239875 C24.3780612,13.5239128 24.433217,13.4330586 24.5197737,13.385649 C24.6063304,13.3382394 24.7111381,13.3414769 24.7947165,13.394142 Z M24.2646344,6.13652828 C25.8921901,6.65172729 27.1174514,9.66689969 27.5902647,11.0307916 C28.5453079,9.17915334 30.5391249,6.95298404 32.1455499,6.96036203 C32.6864501,6.96036203 33.4193698,7.20560729 33.895362,8.37387921 C34.1787918,8.95726615 34.1386861,9.64978807 33.7898864,10.195171 C32.5701565,12.0467718 27.750736,12.0467718 27.5451939,12.0467718 L27.5291851,12.0448711 C27.5255102,12.0446633 27.5218308,12.0443787 27.5181489,12.0440165 C26.6996095,11.945637 25.8969551,11.7400424 25.1300746,11.4323269 C23.5533506,10.817882 22.0361256,9.81768696 21.698063,8.67696862 C21.541202,8.15620591 21.557429,7.36541808 22.5094133,6.56636417 C22.976981,6.11368513 23.6462088,5.949798 24.2646344,6.13652828 Z M32.1482544,7.50043063 C30.796004,7.50043063 28.8649903,9.58899222 27.967096,11.4764127 C29.505957,11.4268162 32.5431115,11.0851518 33.3382348,9.87554948 C33.584826,9.48258642 33.6054759,8.98503304 33.3923248,8.57226501 C33.1813737,8.04048086 32.9001056,7.71534858 32.5485205,7.57482531 C32.4210644,7.52393106 32.2851396,7.49866767 32.1482544,7.50043063 Z M22.8718164,6.9741572 C22.2768262,7.46461097 22.0604661,7.96333083 22.2227362,8.49235962 C22.6013663,9.79564409 25.1300746,11.0989286 27.1665638,11.4240608 C26.6824581,9.97198702 25.5249318,7.20009658 24.1970218,6.68208922 L24.1131823,6.65178028 C23.6725759,6.52579527 23.1994633,6.64866039 22.8718164,6.9741572 Z" id="Combined-Shape" fill="#E7E7E7" transform="translate(25.595711, 13.994362) rotate(38.000000) translate(-25.595711, -13.994362) "></path>
                </g>
            </g>
        </g>
    </g>
</svg>